<mxfile>
    <diagram id="UGTowARYdH20m0kmThGk" name="第 1 页">
        <mxGraphModel dx="1378" dy="860" grid="0" gridSize="10" guides="1" tooltips="1" connect="1" arrows="1" fold="1" page="1" pageScale="1" pageWidth="1169" pageHeight="827" background="#F1FAEE" math="0" shadow="0">
            <root>
                <mxCell id="0"/>
                <mxCell id="1" parent="0"/>
                <mxCell id="13" value="" style="edgeStyle=orthogonalEdgeStyle;orthogonalLoop=1;jettySize=auto;html=1;strokeColor=#457B9D;fontColor=#1D3557;labelBackgroundColor=#F1FAEE;" parent="1" source="2" target="4" edge="1">
                    <mxGeometry relative="1" as="geometry"/>
                </mxCell>
                <mxCell id="15" value="" style="edgeStyle=orthogonalEdgeStyle;orthogonalLoop=1;jettySize=auto;html=1;strokeColor=#457B9D;fontColor=#1D3557;labelBackgroundColor=#F1FAEE;" parent="1" source="2" target="7" edge="1">
                    <mxGeometry relative="1" as="geometry"/>
                </mxCell>
                <mxCell id="2" value="路由判决" style="rhombus;whiteSpace=wrap;html=1;fillColor=#A8DADC;strokeColor=#457B9D;fontColor=#1D3557;rounded=1;" parent="1" vertex="1">
                    <mxGeometry x="490" y="599.5" width="80" height="50" as="geometry"/>
                </mxCell>
                <mxCell id="12" value="" style="edgeStyle=orthogonalEdgeStyle;orthogonalLoop=1;jettySize=auto;html=1;strokeColor=#457B9D;fontColor=#1D3557;labelBackgroundColor=#F1FAEE;" parent="1" source="3" target="2" edge="1">
                    <mxGeometry relative="1" as="geometry"/>
                </mxCell>
                <mxCell id="3" value="" style="whiteSpace=wrap;html=1;fillColor=#e51400;strokeColor=#B20000;fontColor=#ffffff;rounded=1;" parent="1" vertex="1">
                    <mxGeometry x="330" y="604.5" width="100" height="40" as="geometry"/>
                </mxCell>
                <mxCell id="14" value="" style="edgeStyle=orthogonalEdgeStyle;orthogonalLoop=1;jettySize=auto;html=1;strokeColor=#457B9D;fontColor=#1D3557;labelBackgroundColor=#F1FAEE;" parent="1" source="4" target="5" edge="1">
                    <mxGeometry relative="1" as="geometry"/>
                </mxCell>
                <mxCell id="4" value="FORWARD" style="whiteSpace=wrap;html=1;fillColor=#e51400;strokeColor=#B20000;fontColor=#ffffff;rounded=1;" parent="1" vertex="1">
                    <mxGeometry x="651" y="605.75" width="106" height="37.5" as="geometry"/>
                </mxCell>
                <mxCell id="27" value="" style="edgeStyle=orthogonalEdgeStyle;orthogonalLoop=1;jettySize=auto;html=1;strokeColor=#457B9D;fontColor=#1D3557;labelBackgroundColor=#F1FAEE;" parent="1" source="5" target="26" edge="1">
                    <mxGeometry relative="1" as="geometry"/>
                </mxCell>
                <mxCell id="5" value="POSTROUTING" style="whiteSpace=wrap;html=1;fillColor=#e51400;strokeColor=#B20000;fontColor=#ffffff;rounded=1;" parent="1" vertex="1">
                    <mxGeometry x="856" y="605.75" width="100" height="37.5" as="geometry"/>
                </mxCell>
                <mxCell id="19" style="edgeStyle=orthogonalEdgeStyle;orthogonalLoop=1;jettySize=auto;html=1;strokeColor=#457B9D;fontColor=#1D3557;labelBackgroundColor=#F1FAEE;" parent="1" source="7" edge="1">
                    <mxGeometry relative="1" as="geometry">
                        <mxPoint x="530" y="323" as="targetPoint"/>
                    </mxGeometry>
                </mxCell>
                <mxCell id="7" value="INPUT" style="whiteSpace=wrap;html=1;fillColor=#e51400;strokeColor=#B20000;fontColor=#ffffff;rounded=1;" parent="1" vertex="1">
                    <mxGeometry x="480" y="456" width="100" height="37.5" as="geometry"/>
                </mxCell>
                <mxCell id="11" value="OUTPUT" style="whiteSpace=wrap;html=1;fillColor=#e51400;strokeColor=#B20000;fontColor=#ffffff;rounded=1;" parent="1" vertex="1">
                    <mxGeometry x="757" y="463" width="93" height="33.5" as="geometry"/>
                </mxCell>
                <mxCell id="16" value="" style="endArrow=none;dashed=1;html=1;strokeColor=#457B9D;fontColor=#1D3557;labelBackgroundColor=#F1FAEE;" parent="1" edge="1">
                    <mxGeometry width="50" height="50" relative="1" as="geometry">
                        <mxPoint x="116" y="316" as="sourcePoint"/>
                        <mxPoint x="1119" y="316" as="targetPoint"/>
                    </mxGeometry>
                </mxCell>
                <mxCell id="18" value="" style="endArrow=none;html=1;entryX=0.5;entryY=1;entryDx=0;entryDy=0;strokeColor=#457B9D;fontColor=#1D3557;labelBackgroundColor=#F1FAEE;" parent="1" target="11" edge="1">
                    <mxGeometry width="50" height="50" relative="1" as="geometry">
                        <mxPoint x="804" y="624" as="sourcePoint"/>
                        <mxPoint x="709" y="550" as="targetPoint"/>
                        <Array as="points">
                            <mxPoint x="804" y="600"/>
                        </Array>
                    </mxGeometry>
                </mxCell>
                <mxCell id="20" value="" style="endArrow=classic;html=1;strokeColor=#457B9D;fontColor=#1D3557;labelBackgroundColor=#F1FAEE;" parent="1" source="29" edge="1">
                    <mxGeometry width="50" height="50" relative="1" as="geometry">
                        <mxPoint x="804" y="370" as="sourcePoint"/>
                        <mxPoint x="803.91" y="451" as="targetPoint"/>
                        <Array as="points"/>
                    </mxGeometry>
                </mxCell>
                <mxCell id="21" value="用户空间" style="whiteSpace=wrap;html=1;fillColor=#A8DADC;strokeColor=#457B9D;fontColor=#1D3557;rounded=1;" parent="1" vertex="1">
                    <mxGeometry x="387" y="228" width="518" height="60" as="geometry"/>
                </mxCell>
                <mxCell id="22" value="内核空间" style="text;html=1;align=center;verticalAlign=middle;resizable=0;points=[];autosize=1;fontColor=#1D3557;rounded=1;" parent="1" vertex="1">
                    <mxGeometry x="624" y="506" width="58" height="18" as="geometry"/>
                </mxCell>
                <mxCell id="24" style="edgeStyle=orthogonalEdgeStyle;orthogonalLoop=1;jettySize=auto;html=1;strokeColor=#457B9D;fontColor=#1D3557;labelBackgroundColor=#F1FAEE;" parent="1" source="23" edge="1">
                    <mxGeometry relative="1" as="geometry">
                        <mxPoint x="323.52941176470586" y="620" as="targetPoint"/>
                    </mxGeometry>
                </mxCell>
                <mxCell id="23" value="入口" style="ellipse;shape=cloud;whiteSpace=wrap;html=1;fillColor=#A8DADC;strokeColor=#457B9D;fontColor=#1D3557;rounded=1;" parent="1" vertex="1">
                    <mxGeometry x="120" y="580" width="120" height="80" as="geometry"/>
                </mxCell>
                <mxCell id="26" value="出口" style="ellipse;shape=cloud;whiteSpace=wrap;html=1;fillColor=#A8DADC;strokeColor=#457B9D;fontColor=#1D3557;rounded=1;" parent="1" vertex="1">
                    <mxGeometry x="1013" y="584.5" width="120" height="80" as="geometry"/>
                </mxCell>
                <mxCell id="30" style="edgeStyle=orthogonalEdgeStyle;orthogonalLoop=1;jettySize=auto;html=1;exitX=0.5;exitY=1;exitDx=0;exitDy=0;strokeColor=#457B9D;fontColor=#1D3557;labelBackgroundColor=#F1FAEE;" parent="1" source="29" target="29" edge="1">
                    <mxGeometry relative="1" as="geometry"/>
                </mxCell>
                <mxCell id="29" value="路由判决" style="rhombus;whiteSpace=wrap;html=1;fillColor=#A8DADC;strokeColor=#457B9D;fontColor=#1D3557;rounded=1;" parent="1" vertex="1">
                    <mxGeometry x="764.5" y="354" width="78" height="47" as="geometry"/>
                </mxCell>
                <mxCell id="32" value="" style="endArrow=classic;html=1;entryX=0.5;entryY=0;entryDx=0;entryDy=0;strokeColor=#457B9D;fontColor=#1D3557;labelBackgroundColor=#F1FAEE;" parent="1" target="29" edge="1">
                    <mxGeometry width="50" height="50" relative="1" as="geometry">
                        <mxPoint x="804" y="321" as="sourcePoint"/>
                        <mxPoint x="908" y="378" as="targetPoint"/>
                    </mxGeometry>
                </mxCell>
                <mxCell id="33" value="PREROUTING" style="text;html=1;align=center;verticalAlign=middle;resizable=0;points=[];autosize=1;fontColor=#ffffff;rounded=1;fillColor=#e51400;strokeColor=#B20000;" parent="1" vertex="1">
                    <mxGeometry x="338" y="615.5" width="90" height="18" as="geometry"/>
                </mxCell>
                <mxCell id="57" value="" style="edgeStyle=orthogonalEdgeStyle;rounded=1;orthogonalLoop=1;jettySize=auto;html=1;strokeColor=#457B9D;fillColor=#A8DADC;fontColor=#1D3557;" parent="1" source="36" edge="1">
                    <mxGeometry relative="1" as="geometry">
                        <mxPoint x="377.5" y="748" as="targetPoint"/>
                    </mxGeometry>
                </mxCell>
                <mxCell id="36" value="raw" style="whiteSpace=wrap;html=1;fillColor=#e3c800;strokeColor=#B09500;fontColor=#ffffff;rounded=1;" parent="1" vertex="1">
                    <mxGeometry x="330" y="649.5" width="99" height="28" as="geometry"/>
                </mxCell>
                <mxCell id="37" value="mangle" style="whiteSpace=wrap;html=1;fillColor=#e3c800;strokeColor=#B09500;fontColor=#ffffff;rounded=1;" parent="1" vertex="1">
                    <mxGeometry x="330" y="682" width="97" height="28" as="geometry"/>
                </mxCell>
                <mxCell id="38" value="nat" style="whiteSpace=wrap;html=1;fillColor=#e3c800;strokeColor=#B09500;fontColor=#ffffff;rounded=1;" parent="1" vertex="1">
                    <mxGeometry x="330" y="715" width="97" height="28" as="geometry"/>
                </mxCell>
                <mxCell id="39" value="&lt;div&gt;fileter&lt;/div&gt;" style="whiteSpace=wrap;html=1;fillColor=#e3c800;strokeColor=#B09500;fontColor=#ffffff;rounded=1;" parent="1" vertex="1">
                    <mxGeometry x="651" y="680" width="107" height="28" as="geometry"/>
                </mxCell>
                <mxCell id="40" value="mangle" style="whiteSpace=wrap;html=1;fillColor=#e3c800;strokeColor=#B09500;fontColor=#ffffff;rounded=1;" parent="1" vertex="1">
                    <mxGeometry x="651" y="647" width="106" height="28" as="geometry"/>
                </mxCell>
                <mxCell id="41" value="mangle" style="whiteSpace=wrap;html=1;fillColor=#e3c800;strokeColor=#B09500;fontColor=#ffffff;rounded=1;" parent="1" vertex="1">
                    <mxGeometry x="856" y="649.5" width="104" height="28" as="geometry"/>
                </mxCell>
                <mxCell id="42" value="nat" style="whiteSpace=wrap;html=1;fillColor=#e3c800;strokeColor=#B09500;fontColor=#ffffff;rounded=1;" parent="1" vertex="1">
                    <mxGeometry x="856" y="687" width="104" height="28" as="geometry"/>
                </mxCell>
                <mxCell id="43" value="mangle" style="whiteSpace=wrap;html=1;fillColor=#e3c800;strokeColor=#B09500;fontColor=#ffffff;verticalAlign=middle;rounded=1;" parent="1" vertex="1">
                    <mxGeometry x="380" y="456" width="97" height="28" as="geometry"/>
                </mxCell>
                <mxCell id="44" value="nat" style="whiteSpace=wrap;html=1;labelBackgroundColor=none;labelBorderColor=none;fillColor=#e3c800;strokeColor=#B09500;fontColor=#ffffff;rounded=1;" parent="1" vertex="1">
                    <mxGeometry x="380" y="491" width="97" height="28" as="geometry"/>
                </mxCell>
                <mxCell id="45" value="&lt;div&gt;fileter&lt;/div&gt;" style="whiteSpace=wrap;html=1;fillColor=#e3c800;strokeColor=#B09500;fontColor=#ffffff;rounded=1;" parent="1" vertex="1">
                    <mxGeometry x="380" y="524" width="96" height="28" as="geometry"/>
                </mxCell>
                <mxCell id="46" value="raw" style="whiteSpace=wrap;html=1;fillColor=#e3c800;strokeColor=#B09500;fontColor=#ffffff;rounded=1;" parent="1" vertex="1">
                    <mxGeometry x="854" y="463" width="103" height="28" as="geometry"/>
                </mxCell>
                <mxCell id="47" value="mangle" style="whiteSpace=wrap;html=1;fillColor=#e3c800;strokeColor=#B09500;fontColor=#ffffff;rounded=1;" parent="1" vertex="1">
                    <mxGeometry x="854" y="493.5" width="102" height="28" as="geometry"/>
                </mxCell>
                <mxCell id="48" value="nat" style="whiteSpace=wrap;html=1;fillColor=#e3c800;strokeColor=#B09500;fontColor=#ffffff;rounded=1;" parent="1" vertex="1">
                    <mxGeometry x="854" y="524" width="102" height="28" as="geometry"/>
                </mxCell>
                <mxCell id="49" value="&lt;div&gt;fileter&lt;/div&gt;" style="whiteSpace=wrap;html=1;fillColor=#e3c800;strokeColor=#B09500;fontColor=#ffffff;rounded=1;" parent="1" vertex="1">
                    <mxGeometry x="854" y="556.5" width="102" height="28" as="geometry"/>
                </mxCell>
                <mxCell id="51" value="" style="endArrow=classic;html=1;strokeColor=#457B9D;fontColor=#1D3557;labelBackgroundColor=#F1FAEE;" parent="1" edge="1">
                    <mxGeometry width="50" height="50" relative="1" as="geometry">
                        <mxPoint x="977" y="487.5" as="sourcePoint"/>
                        <mxPoint x="977" y="556.5" as="targetPoint"/>
                    </mxGeometry>
                </mxCell>
                <mxCell id="52" value="" style="endArrow=classic;html=1;strokeColor=#457B9D;fontColor=#1D3557;labelBackgroundColor=#F1FAEE;" parent="1" edge="1">
                    <mxGeometry width="50" height="50" relative="1" as="geometry">
                        <mxPoint x="354" y="470.5" as="sourcePoint"/>
                        <mxPoint x="354" y="539.5" as="targetPoint"/>
                    </mxGeometry>
                </mxCell>
                <mxCell id="53" value="" style="endArrow=classic;html=1;strokeColor=#457B9D;fontColor=#1D3557;labelBackgroundColor=#F1FAEE;" parent="1" edge="1">
                    <mxGeometry width="50" height="50" relative="1" as="geometry">
                        <mxPoint x="303" y="655" as="sourcePoint"/>
                        <mxPoint x="303" y="724" as="targetPoint"/>
                    </mxGeometry>
                </mxCell>
                <mxCell id="54" value="" style="endArrow=classic;html=1;strokeColor=#457B9D;fontColor=#1D3557;labelBackgroundColor=#F1FAEE;" parent="1" edge="1">
                    <mxGeometry width="50" height="50" relative="1" as="geometry">
                        <mxPoint x="631" y="647" as="sourcePoint"/>
                        <mxPoint x="631" y="716" as="targetPoint"/>
                    </mxGeometry>
                </mxCell>
                <mxCell id="55" value="" style="endArrow=classic;html=1;strokeColor=#457B9D;fontColor=#1D3557;labelBackgroundColor=#F1FAEE;" parent="1" edge="1">
                    <mxGeometry width="50" height="50" relative="1" as="geometry">
                        <mxPoint x="839" y="656" as="sourcePoint"/>
                        <mxPoint x="839" y="725" as="targetPoint"/>
                    </mxGeometry>
                </mxCell>
                <mxCell id="58" style="edgeStyle=orthogonalEdgeStyle;rounded=1;orthogonalLoop=1;jettySize=auto;html=1;exitX=0.5;exitY=1;exitDx=0;exitDy=0;strokeColor=#457B9D;fillColor=#A8DADC;fontColor=#1D3557;" parent="1" edge="1">
                    <mxGeometry relative="1" as="geometry">
                        <mxPoint x="377.5" y="776" as="sourcePoint"/>
                        <mxPoint x="377.5" y="776" as="targetPoint"/>
                    </mxGeometry>
                </mxCell>
                <mxCell id="61" value="链" style="whiteSpace=wrap;html=1;fillColor=#e51400;strokeColor=#B20000;fontColor=#ffffff;rounded=1;" parent="1" vertex="1">
                    <mxGeometry x="148" y="390" width="100" height="28.5" as="geometry"/>
                </mxCell>
                <mxCell id="62" value="表" style="whiteSpace=wrap;html=1;fillColor=#e3c800;strokeColor=#B09500;fontColor=#ffffff;verticalAlign=middle;rounded=1;" parent="1" vertex="1">
                    <mxGeometry x="148" y="417" width="99" height="28" as="geometry"/>
                </mxCell>
            </root>
        </mxGraphModel>
    </diagram>
</mxfile>